# xmcd CD database file
#
# Track frame offsets:
#	150
#	28717
#	56155
#	75622
#	107115
#	123385
#	143947
#	167352
#	186105
#	208975
#	222285
#
# Disc length: 3300 seconds
#
# Revision: 0
# Processed by: cddbd v1.5.2PL0 Copyright (c) Steve Scherf et al.
# Submitted via: CDex 1.51
#
DISCID=a00ce20b
DTITLE=Myriam Alter - Reminiscence
DYEAR=1994
DGENRE=Jazz
TTITLE0=Romantic Mood
TTITLE1=Conversation
TTITLE2=Tenderness
TTITLE3=Somewhere
TTITLE4=Bossa
TTITLE5=What Can I Do?
TTITLE6=So Far,So Close At The Same Time
TTITLE7=Keep Going
TTITLE8=Mystery
TTITLE9=Reminiscence
TTITLE10=Don't Rush
EXTD=YEAR: 1994
EXTT0=
EXTT1=
EXTT2=
EXTT3=
EXTT4=
EXTT5=
EXTT6=
EXTT7=
EXTT8=
EXTT9=
EXTT10=
PLAYORDER=
